Coordinates
version=1
nRows=8
nColumns=36
inDegrees=yes

Units are S.I. units (second, meters, Newtons, ...)
If the header above contains a line with 'inDegrees', this indicates whether rotational values are in degrees (yes) or radians (no).

endheader
time	pelvis_tilt	pelvis_list	pelvis_rotation	pelvis_tx	pelvis_ty	pelvis_tz	hip_flexion_r	hip_adduction_r	hip_rotation_r	knee_angle_r	knee_angle_r_beta	ankle_angle_r	subtalar_angle_r	mtp_angle_r	hip_flexion_l	hip_adduction_l	hip_rotation_l	knee_angle_l	knee_angle_l_beta	ankle_angle_l	subtalar_angle_l	mtp_angle_l	lumbar_extension	lumbar_bending	lumbar_rotation	arm_flex_r	arm_add_r	arm_rot_r	elbow_flex_r	pro_sup_r	arm_flex_l	arm_add_l	arm_rot_l	elbow_flex_l	pro_sup_l
      0.00000000	     -7.31871021	     -0.41290572	     -2.94974664	     -0.16610684	      0.93169381	     -0.62929475	      4.45929907	     -6.49009579	     -7.44616072	      0.99740554	      0.01740801	      4.39955966	     -1.14823055	     -6.88476144	      4.41256367	     -7.68664618	    -10.21697289	      0.98427464	      0.01717883	      3.10267136	     -1.41498808	     -6.88476144	      6.93156116	      0.27099873	     -0.61957076	     -9.27275043	    -11.24496314	     17.91804501	    130.17123341	    107.56982424	    -10.36366922	     -8.72940061	     20.74215899	    126.51733469	     97.87423497
      0.01000000	     -7.31073738	     -0.41758354	     -2.91331951	     -0.16600445	      0.93169179	     -0.62928478	      4.44877113	     -6.48335735	     -7.55654052	      1.01499083	      0.01771493	      4.35442878	     -1.20906222	     -7.09714176	      4.40335091	     -7.68534212	    -10.10161161	      0.97719036	      0.01705519	      3.05720468	     -1.63326951	     -7.09714176	      6.90719831	      0.26610639	     -0.64698473	     -9.27579278	    -11.24731860	     17.94185737	    130.23059882	    106.99057678	    -10.33084500	     -8.77226924	     20.76281607	    126.48462505	     98.45649613
      0.02000000	     -7.30084308	     -0.41807614	     -2.94675861	     -0.16592086	      0.93170147	     -0.62919940	      4.44433465	     -6.48259865	     -7.51991869	      1.03236335	      0.01801814	      4.43931181	     -1.12411182	     -7.25208040	      4.38548174	     -7.69058004	    -10.20736429	      0.98310749	      0.01715846	      3.06069321	     -1.65099755	     -7.25208040	      6.88577855	      0.26121437	     -0.61376989	     -9.25200499	    -11.27754217	     17.94235759	    130.22437865	    107.19143715	    -10.31403997	     -8.78907237	     20.76024985	    126.41447410	     99.16535698
      0.03000000	     -7.33959479	     -0.44758307	     -2.93403319	     -0.16580280	      0.93164693	     -0.62916174	      4.48112105	     -6.45340173	     -7.57702043	      1.05459181	      0.01840610	      4.53559239	     -0.89029480	     -7.28419024	      4.41671787	     -7.73383853	    -10.14947946	      0.98942937	      0.01726880	      3.21099988	     -1.46339023	     -7.28419024	      6.93277128	      0.28430002	     -0.66554730	     -9.22674185	    -11.32329676	     18.09428666	    130.38225134	    104.90004839	    -10.33352913	     -8.81465772	     20.88949667	    126.67463701	     97.35770527
      0.04000000	     -7.25720966	     -0.45668813	     -2.93180359	     -0.16573885	      0.93177270	     -0.62911909	      4.38234145	     -6.43967117	     -7.57004485	      1.04355213	      0.01821342	      4.46963767	     -1.01694395	     -7.37192598	      4.32647758	     -7.74059018	    -10.18028217	      0.98916445	      0.01726418	      3.09840610	     -1.62348551	     -7.37192598	      6.80152085	      0.28689858	     -0.69911016	     -9.14553419	    -11.33980718	     17.98641547	    130.19590375	    107.14261546	    -10.22880598	     -8.84837934	     20.82444288	    126.45723668	     99.29306892
      0.05000000	     -7.19040924	     -0.45790531	     -2.92273184	     -0.16565530	      0.93185552	     -0.62909374	      4.31035510	     -6.44378028	     -7.61566548	      1.06999186	      0.01867488	      4.56548563	     -0.88286907	     -7.39091462	      4.26014451	     -7.74510896	    -10.24252325	      1.00086568	      0.01746840	      3.15996958	     -1.49863587	     -7.39091462	      6.69818347	      0.28756630	     -0.73453404	     -9.06695614	    -11.36023868	     18.14788085	    130.38401944	    104.84147533	    -10.08676791	     -8.93401535	     20.98976374	    126.67971056	     97.63731768
      0.06000000	     -7.34705585	     -0.45377352	     -2.90066408	     -0.16559245	      0.93166777	     -0.62904511	      4.49007184	     -6.44563126	     -7.57428051	      1.12035407	      0.01955387	      4.76075631	     -0.69110258	     -7.40328676	      4.44312184	     -7.75603921	    -10.12738746	      1.03698595	      0.01809882	      3.27266519	     -1.25345312	     -7.40328676	      6.85158159	      0.28000676	     -0.77736755	     -9.08188263	    -11.40828290	     18.29977161	    130.62634295	    102.99049199	    -10.07513133	     -9.05779981	     21.15878663	    126.99619196	     96.21083954
      0.07000000	     -7.14717804	     -0.48265720	     -2.90504482	     -0.16558981	      0.93194655	     -0.62898316	      4.25724195	     -6.40362775	     -7.45405869	      1.08117001	      0.01886998	      4.48765717	     -1.19238019	     -7.44345575	      4.22095987	     -7.76755474	    -10.09047906	      1.01770453	      0.01776229	      3.03800558	     -1.64175439	     -7.44345575	      6.57676001	      0.29906203	     -0.70780731	     -8.99671232	    -11.40899331	     17.99871802	    130.25877991	    107.02428019	     -9.80443745	     -9.14265598	     21.13616164	    126.46517871	     99.97125993
